<svg width="21" height="32" viewBox="0 0 21 32" fill="none" xmlns="http://www.w3.org/2000/svg">
<path d="M18.2627 0H2.35866C1.05579 0 0 1.05575 0 2.35863V29.2698C0 30.5727 1.05579 31.6284 2.35866 31.6284H18.2627C19.5656 31.6284 20.6214 30.5727 20.6214 29.2698V2.35863C20.6214 1.07822 19.5432 0 18.2627 0Z" fill="white"/>
<path d="M19.4757 3.79642H1.12305V25.9903H19.4757V3.79642Z" fill="#404040"/>
<path d="M14.0619 1.41492H6.53668C6.24466 1.41492 5.9751 1.66201 5.9751 1.9765C5.9751 2.29099 6.22219 2.53809 6.53668 2.53809H14.0619C14.354 2.53809 14.6235 2.29099 14.6235 1.9765C14.6235 1.68448 14.3764 1.41492 14.0619 1.41492Z" fill="#6639A6"/>
<path d="M8.51416 28.6633C8.51416 27.675 9.32285 26.8438 10.3112 26.8438C11.2996 26.8438 12.1308 27.6525 12.1308 28.6633C12.1308 29.6517 11.3221 30.4604 10.3112 30.4604C9.32285 30.4828 8.51416 29.6742 8.51416 28.6633Z" fill="#6639A6"/>
</svg>
